<?xml version="1.0" encoding="UTF-8" standalone="no"?>
<svg xmlns:rdf="http://www.w3.org/1999/02/22-rdf-syntax-ns#" xmlns="http://www.w3.org/2000/svg" viewBox="0 0 572.94464 168.45062" width="572.94" version="1.1" xmlns:cc="http://creativecommons.org/ns#" height="168.45" xmlns:dc="http://purl.org/dc/elements/1.1/">
<metadata>
<rdf:RDF>
<cc:Work rdf:about="">
<dc:format>image/svg+xml</dc:format>
<dc:type rdf:resource="http://purl.org/dc/dcmitype/StillImage"/>
<dc:title/>
</cc:Work>
</rdf:RDF>
</metadata>
<g fill="#77994f" transform="translate(189.63 -855.66)">
<text style="word-spacing:0px;letter-spacing:0px" xml:space="preserve" font-size="15px" y="867.10254" x="56.058395" font-family="Sans" line-height="125%"><tspan y="867.10254" x="56.058395" fill="#77994f"/></text>
<text style="word-spacing:0px;letter-spacing:0px" fill-opacity="0" xml:space="preserve" font-size="15px" y="949.85541" x="86.490097" font-family="Sans" line-height="125%"><tspan y="949.85541" x="86.490097" fill="#77994f"/></text>
<path d="m92.27 0c-7.699 0-14.124 2.608-17.315 7.0117-2.835 3.9133-6.562 12.002-7.098 15.406-0.282 1.795-0.478 6.65-0.439 10.789 0.02 2.035 0.017 3.51-0.018 4.703l-30.986 28.166c-0.792 0.07-1.577 0.136-2.377 0.201-11.442 0.946-16.186 1.99-21.613 4.772-7.748 3.97-11.113 9.47-12.223 19.957-0.63313 5.982 0.22224 12.174 2.7306 19.854 1.0798 3.31 1.4755 5.41 1.1133 5.95v0.02c-0.6784 1.03-0.1551 2.2 1.1465 2.56 0.6982 0.2 1.8195 2.07 4.1133 6.85 6.6053 13.77 13.778 19.52 24.142 19.33 3.743-0.06 4.988-0.39 9.155-2.34 4.204-2 8.236-4.95 11.953-8.4 0.979 3.06 1.987 6.83 2.814 10.71 2.845 13.32 3.229 14.35 6.256 16.89 1.446 1.21 2.445 2.46 2.293 2.86-0.469 1.23 4.595 1.87 6.406 0.81 0.525-0.31 1.417-0.48 1.971-0.39 0.623 0.11 2.138-0.92 3.98-2.66l2.983-2.81 7.74 0.28c11.782 0.45 12.862-0.86 12.322-5.17-0.65-5.21 2.32-10.3 2.29-11.8 0.41-2.22 0.95-2.76 1.25-5.78-0.29-1.15 0.36-3.64 3.27-12.56 0.96-2.93 0.98-13.11 0.04-25.15-0.37-1.348 0.16-1.349 0.77-1.349 1 0.539 1.01 0.554 2.09 1.18l4.01 3.899c2.65 2.57 4.46 4.91 5.35 6.84 0.74 1.61 1.97 3.85 2.75 4.99 1.93 2.83 3.75 6.56 4.85 9.93 0.51 1.55 1.13 2.83 1.37 2.83s0.59 1.11 0.79 2.44c0.2 1.34 0.7 3.07 1.11 3.86s0.66 1.63 0.53 1.84 0.14 0.7 0.62 1.1c0.76 0.63 1.12 0.44 2.7-1.39l1.82-2.09v-7.13c0-8.4-1.12-13.57-5.13-23.75-3.08-7.833-4.88-11.17-10.26-18.842-5.56-7.918-6.93-10.476-8.18-15.357 8.15-4.405 19.41-10.39 34.83-18.524 26.48-13.97 35.15-18.359 37.19-18.795 1.88-0.401 3.78-0.183 6.48 0.725 3.76 1.269 3.84 1.258 6.06-0.321 1.24-0.879 4.35-3.38 6.92-5.562 2.56-2.183 5.03-4.153 5.47-4.383 0.45-0.23 2.28 0.127 4.07 0.793 4.97 1.853 9.66-0.296 10.54-4.838 0.72-3.726-3.37-8.008-7.05-7.383-0.96 0.164-1.18-0.086-1.5-1.7027-0.48-2.379-0.38-2.2521-1.32-1.7695-0.83 0.4304-0.82 2.9792 0.02 3.5062 0.27 0.169-0.01 0.414-0.62 0.539-3.88 0.792-3.75 0.805-3.65-0.489 0.14-1.617-1.15-2.7362-2.41-2.0894-1.16 0.6-0.9 2.6264 0.41 3.0844 0.93 0.327 0.74 0.4-2.88 1.113-1.25 0.245-1.36 0.163-0.83-0.641 0.34-0.509 0.39-1.367 0.12-1.904-0.62-1.2069-2.83-0.9134-3.41 0.455-0.52 1.213 0.07 2.56 0.91 2.123 0.33-0.171 0.54-0.091 0.46 0.168s-1.18 0.63-2.41 0.826c-1.85 0.292-2.14 0.194-1.64-0.556 1.26-1.909-1.46-3.5497-3.14-1.887-0.93 0.927-0.3 3.116 0.75 2.578 0.33-0.171 0.55-0.159 0.49 0.035-0.07 0.194-1.22 0.612-2.58 0.928-2.12 0.49-2.41 0.425-1.96-0.473 0.69-1.371-0.61-3.007-1.87-2.359-1.4 0.718-1.49 2.91-0.14 3.035 1.39 0.128 0.6 0.493-2.17 1.01-1.93 0.361-2.28 0.242-2.26-0.758 0.03-1.747-0.72-2.866-1.6-2.41-0.43 0.22-0.57 0.813-0.32 1.314 0.93 1.845 0.48 2.553-1.92 2.985-2.12 0.38-2.29 0.538-3.09 2.88l-0.84 2.479-20.18 9.826c-11.1 5.399-31.68 15.54-45.74 22.537-1.04 0.519-1.77 0.885-2.73 1.365-1.08-3.29-2.14-6.009-3.14-7.972-1.13-2.225-2.33-4.965-2.68-6.102-0.59-1.928-5.909-7.922-7.029-7.922-0.253 0-2.299-0.86-4.535-1.921-3.548-1.684-4.06-2.114-4.079-3.372l-0.035-1.449-0.859 1.584c-0.711 1.313-0.947 1.45-1.449 0.809-0.333-0.426-0.974-0.776-1.416-0.776-0.469 0-0.925-0.674-1.096-1.617-0.275-1.524-0.324-1.557-0.928-0.541-0.623 1.053-0.639 1.051-0.658-0.133-0.009-0.684-0.358-1.214-0.793-1.214-1.14 0-3.06-5.666-3.254-9.59-0.182-3.701-0.209-3.659 6.729-10.873 1.885-1.9606 5.373-3.4005 9.845-4.0785 3.505-0.53148 2.192-1.3496-2.175-1.3496l0.002-0.0039zm6.455 1.1172c-0.79 0.0199-2.001 0.5547-3.422 1.584-1.229 0.8901-2.647 1.6191-3.137 1.6191-0.489 0-1.116 0.2204-1.398 0.4883-0.282 0.2678-2.233 1.3655-4.334 2.4277-2.102 1.0622-3.851 2.2374-3.895 2.6133-0.269 2.2694-0.828 4.1794-1.213 4.1794-0.658 0-0.319 2.139 0.725 4.518 0.504 1.149 0.928 2.484 0.928 2.967 0.004 0.482 0.16 1.429 0.337 2.09 0.251 0.935 0.528 1.093 1.246 0.708 0.719-0.384 1.114-0.168 1.821 1.028 0.636 1.077 1.216 1.452 1.939 1.264 0.628-0.165 1.103 0.041 1.215 0.523 0.124 0.532 0.387 0.636 0.809 0.287 0.344-0.285 1.216-1.064 1.939-1.721 0.722-0.656 1.603-1.095 1.955-0.976 0.353 0.117 1.04-0.11 1.518-0.506 0.77-0.639 0.809-0.568 0.471 0.623l-0.37 1.332 1.096-1.35c1.083-1.329 1.091-1.319 1.111-0.152 0.01 0.953 1.133 0.112 5.734-4.314 3.14-3.025 6.6-6.043 7.69-6.709 1.85-1.138 1.89-1.226 0.62-1.264-1.22-0.037-1.25-0.078-0.27-0.473 0.6-0.243 1.36-0.2 1.72 0.084 0.35 0.282 1.54 0.362 2.65 0.186 2.25-0.359 8.03-2.8129 8.8-3.7424 0.83-1.0006-0.8-3.9485-2.75-5.0058-2.14-1.1572-10.9-1.4915-15.43-0.5918-2.5 0.4984-2.97 0.4412-4.03-0.4551-0.81-0.6954-0.98-0.7354-0.52-0.1328 0.56 0.7221 0.54 0.9364-0.13 1.1953-1.18 0.4502-1.02 2.3745 0.25 3.1699 1.37 0.8541 1.38 1.4825 0.03 1.4825-0.57 0-1.23 0.2935-1.45 0.6406-0.26 0.4275-0.08 0.5076 0.54 0.2695 0.51-0.1933 2.12 0.1164 3.6 0.6758 1.47 0.5583 2.67 0.7743 2.67 0.4883 0-0.2849 0.27-0.3378 0.59-0.135 0.42 0.258 0.38 0.512-0.13 0.844-0.58 0.375-0.45 0.695 0.59 1.5l1.32 1.012-2.4 0.488c-2.02 0.404-2.56 0.315-3.47-0.539-0.59-0.557-2-1.482-3.12-2.057-1.731-0.892-1.97-1.243-1.686-2.3767 0.465-1.8497-0.99-2.2958-2.816-0.8594-0.79 0.6217-1.701 1.1289-2.023 1.1289-0.323 0-0.035-0.3641 0.625-0.8261 2.286-1.6015 1.329-3.22-1.434-2.4278-2.197 0.6298-2.216-0.2192-0.033-1.3476 1.084-0.5587 2.226-0.7248 3.302-0.4883 1.746 0.3833 2.562-0.2775 2.581-2.0567 0.005-0.6319-0.347-0.9291-0.961-0.9101zm-6.405 6.1172c0.026-0.0089 0.055-0.0076 0.082 0.0019h0.002c0.165 0.0391 0.369 0.31 0.522 0.709 0.292 0.7688 0.23 0.8313-0.303 0.3027-0.371-0.366-0.536-0.7959-0.371-0.9609 0.02-0.026 0.042-0.0439 0.068-0.0527zm-27.027 39.125c-0.562 1.848-1.121 4.094-1.449 5.967-0.03 0.171-0.071 0.322-0.102 0.488-0.83 0.775-1.681 1.586-2.596 2.461-4.923 4.71-8.802 7.547-12.341 8.952l16.488-17.868zm236.34 39.342v10h10v-10h-10zm15 0v44.999c0 5.83 1.48 11.01 5.16 14.69s9.01 5.31 14.84 5.31h5v-10h-5c-4.16 0-6.33-1.02-7.65-2.34s-2.35-3.49-2.35-7.66v-20h15v-10h-15v-14.999h-10zm170 0v10h10v-10h-10zm-315 14.999c-5.83 0-11.16 1.48-14.84 5.16s-5.16 9.01-5.16 14.84v5c0 5.83 1.48 11.01 5.16 14.69s9.01 5.31 14.84 5.31h40c0 4.17-1.02 6.34-2.34 7.66s-3.49 2.34-7.66 2.34h-40v10h40c5.84 0 11.17-1.63 14.85-5.31s5.15-8.86 5.15-14.69v-45h-50zm55 0v30c0 5.83 1.48 11.01 5.16 14.69s9.01 5.31 14.84 5.31h30c5.84 0 11.17-1.63 14.85-5.31s5.15-8.86 5.15-14.69v-30h-10v30c0 4.17-1.02 6.34-2.34 7.66s-3.49 2.34-7.66 2.34h-30c-4.16 0-6.33-1.02-7.65-2.34s-2.35-3.49-2.35-7.66v-30h-10zm75 0v50h10v-50h-10zm55 0v10h40c4.17 0 6.34 0.87 7.66 2.19 0.66 0.66 1.3 1.54 1.72 2.81h-39.38c-5.69 0-10.61 1.09-14.37 4.22s-5.63 8.11-5.63 13.28 1.87 9.99 5.63 13.13c3.76 3.13 8.68 4.37 14.37 4.37h50v-30c0-5.83-1.47-11.16-5.15-14.84s-9.01-5.16-14.85-5.16h-40zm85 0c-5.83 0-11.16 1.48-14.84 5.16s-5.16 9.01-5.16 14.84v30h10v-30c0-4.17 1.02-6.49 2.35-7.81 1.32-1.32 3.49-2.19 7.65-2.19h40v-10h-40zm45 0v50h10v-50h-10zm15 0v5.31l26.57 19.69-26.57 19.69v5.31h9.69l25.31-18.75 25.32 18.75h9.68v-5.31l-26.56-19.69 26.56-19.69v-5.31h-9.68l-25.32 18.75-25.31-18.75h-9.69zm-330 10h40v25h-40c-4.16 0-6.33-1.02-7.65-2.34s-2.35-3.49-2.35-7.66v-5c0-4.17 1.03-6.49 2.35-7.81s3.49-2.19 7.65-2.19zm195 15h40v15h-40c-4.3 0-6.88-1-8.12-2.03s-1.88-2.3-1.88-5.47 0.64-4.59 1.88-5.62c1.24-1.04 3.82-1.88 8.12-1.88zm-273.33 19.37c0.3-0.03 0.11 1.12 0.201 3.79 0.117 3.47-2.813 6.03-5.227 7.21-1.707 0.85-4.753 1.23-4.753 0.61 0-0.34 4.47-5.78 7.839-9.54 1.169-1.3 1.705-2.05 1.94-2.07zm139.18 9.01c-1.14 0-1.98 0.06-2.53 0.18-0.56 0.12-1 0.34-1.35 0.63-0.38 0.32-0.67 0.75-0.84 1.31-0.17 0.57-0.25 1.33-0.25 2.28v3.16c0 0.88 0.08 1.56 0.25 2.09s0.46 0.96 0.84 1.28c0.35 0.3 0.8 0.51 1.35 0.63s1.41 0.19 2.56 0.19h4.09c1.25 0 2.13-0.05 2.69-0.16 0.55-0.11 1-0.3 1.31-0.56 0.34-0.28 0.58-0.62 0.72-1.03 0.14-0.43 0.19-1.2 0.19-2.32v-1.87h-7.31v1.28h5.87v0.59c0 1.15-0.17 1.88-0.53 2.22-0.36 0.35-1.08 0.53-2.19 0.53h-5.44c-0.67 0-1.21-0.06-1.59-0.18-0.38-0.13-0.66-0.36-0.87-0.66-0.15-0.21-0.26-0.46-0.32-0.75s-0.09-0.78-0.09-1.47v-3.06c0-0.69 0.03-1.18 0.09-1.47s0.17-0.54 0.32-0.75c0.21-0.3 0.5-0.5 0.87-0.63 0.37-0.12 0.91-0.18 1.59-0.18h5.47c1.01 0 1.71 0.17 2.1 0.53 0.39 0.35 0.59 0.98 0.59 1.87v0.16h1.31c0.01-0.08 0.03-0.14 0.03-0.22 0.01-0.09 0-0.21 0-0.37 0-1.23-0.33-2.1-1-2.57-0.66-0.46-1.93-0.68-3.81-0.68h-4.12zm48.31 0l-6.53 13.09h1.15l6.54-13.09h-1.16zm139.47 0c-1.14 0-2.01 0.06-2.56 0.18-0.56 0.12-1 0.34-1.35 0.63-0.38 0.32-0.64 0.75-0.81 1.31-0.17 0.57-0.28 1.33-0.28 2.28v3.16c0 0.88 0.11 1.56 0.28 2.09s0.43 0.96 0.81 1.28c0.35 0.3 0.8 0.51 1.35 0.63s1.41 0.19 2.56 0.19h4.09c1.25 0 2.17-0.05 2.72-0.16 0.56-0.11 0.97-0.3 1.28-0.56 0.34-0.28 0.58-0.62 0.72-1.03 0.14-0.43 0.22-1.2 0.22-2.32v-1.87h-7.34v1.28h5.9v0.59c0 1.15-0.2 1.88-0.56 2.22-0.36 0.35-1.08 0.53-2.19 0.53h-5.44c-0.67 0-1.21-0.06-1.59-0.18-0.38-0.13-0.66-0.36-0.87-0.66-0.15-0.21-0.26-0.46-0.32-0.75s-0.09-0.78-0.09-1.47v-3.06c0-0.69 0.03-1.18 0.09-1.47s0.17-0.54 0.32-0.75c0.21-0.3 0.5-0.5 0.87-0.63 0.37-0.12 0.91-0.18 1.59-0.18h5.5c1.01 0 1.71 0.17 2.1 0.53 0.39 0.35 0.59 0.98 0.59 1.87v0.16h1.31c0.01-0.08 0-0.14 0-0.22 0.01-0.09 0-0.21 0-0.37 0-1.23-0.33-2.1-1-2.57-0.66-0.46-1.93-0.68-3.81-0.68h-4.09zm-176.19 0.12v11.5h1.41v-10.34l10.53 10.34h2.09v-11.5h-1.4v10.19l-10.41-10.19h-2.22zm16.75 0v7.47c0 0.87 0.08 1.56 0.25 2.09s0.47 0.97 0.84 1.28c0.35 0.3 0.78 0.51 1.32 0.63s1.37 0.16 2.5 0.16h3.5c1.13 0 1.99-0.04 2.53-0.16s0.95-0.33 1.28-0.63c0.36-0.31 0.64-0.75 0.81-1.31 0.17-0.55 0.25-1.27 0.25-2.15v-7.38h-1.47v7.47c0 0.61-0.03 1.04-0.09 1.31-0.06 0.28-0.14 0.52-0.28 0.72-0.21 0.29-0.51 0.49-0.88 0.63-0.37 0.12-0.89 0.18-1.56 0.18h-4.72c-0.66 0-1.19-0.06-1.56-0.18-0.37-0.14-0.64-0.34-0.84-0.63-0.15-0.2-0.26-0.44-0.32-0.72-0.06-0.27-0.09-0.7-0.09-1.31v-7.47h-1.47zm21.78 0v11.5h10.35v-1.25h-8.94v-10.25h-1.41zm12.03 0v1.56h1.32v-1.56h-1.32zm45.5 0l6.38 11.5h1.81l6.38-11.5h-1.63l-5.69 10.28-5.62-10.28h-1.63zm15.91 0v1.56h1.28v-1.56h-1.28zm47.78 0v11.5h1.28v-11.5h-1.28zm40.28 0v1.56h1.31v-1.56h-1.31zm48.1 0l-6.66 11.5h1.62l1.47-2.53h9.13l1.5 2.53h1.53l-6.69-11.5h-1.9zm41.59 0v11.5h1.25v-11.5h-1.25zm4.09 0v1.56h1.28v-1.56h-1.28zm7.53 0c-1.03 0-1.77 0.24-2.25 0.69-0.47 0.44-0.71 1.16-0.71 2.12v0.57h-1.72v1.15h1.72v6.97h1.28v-6.97h3.75v-1.15h-3.75v-0.82c0-0.49 0.11-0.85 0.37-1.06s0.71-0.31 1.35-0.31h2.03v-1.19h-2.07zm3.19 0v1.56h1.31v-1.56h-1.31zm-55.44 1.16l3.91 6.59h-7.75l3.84-6.59zm-122.53 0.37v1.85h-1.75v1.09h1.75v4.19c0 0.67 0.04 1.15 0.13 1.43 0.08 0.28 0.22 0.52 0.44 0.72 0.28 0.28 0.66 0.47 1.09 0.6 0.44 0.13 0.97 0.18 1.66 0.18 1.31 0 2.23-0.18 2.75-0.59 0.51-0.41 0.78-1.13 0.78-2.16v-1.06h-1.13v1.06c0 0.69-0.12 1.11-0.4 1.32-0.29 0.2-0.86 0.31-1.69 0.31-1.03 0-1.68-0.13-1.97-0.38-0.29-0.24-0.44-0.68-0.44-1.34v-4.28h5.38v-1.09h-5.35v-1.85h-1.25zm77.97 0v1.85h-1.75v1.09h1.75v4.19c0 0.67 0.04 1.15 0.13 1.43 0.08 0.28 0.22 0.52 0.43 0.72 0.29 0.28 0.63 0.47 1.07 0.6 0.43 0.13 1 0.18 1.68 0.18 1.32 0 2.24-0.18 2.75-0.59 0.52-0.41 0.79-1.13 0.79-2.16v-1.06h-1.13v1.06c0 0.69-0.15 1.11-0.44 1.32-0.28 0.2-0.82 0.31-1.65 0.31-1.03 0-1.68-0.13-1.97-0.38-0.29-0.24-0.44-0.68-0.44-1.34v-4.28h5.34v-1.09h-5.34v-1.85h-1.22zm107.75 1.75c-1.47 0-2.53 0.27-3.15 0.81-0.63 0.54-0.94 1.45-0.94 2.72v1.28c0 1.26 0.31 2.18 0.94 2.72s1.69 0.82 3.15 0.82h2.41c1.2 0 2.13-0.23 2.75-0.63 0.63-0.41 0.94-1 0.94-1.78v-0.19h-1.35v0.06c0 0.47-0.22 0.84-0.65 1.07-0.43 0.22-1.07 0.31-1.97 0.31h-2.13c-1.03 0-1.77-0.16-2.19-0.5-0.41-0.34-0.62-0.96-0.62-1.81v-0.44h8.91c0.01-0.07 0-0.17 0-0.25 0.01-0.09 0-0.21 0-0.38 0-1.42-0.31-2.4-0.91-2.97-0.6-0.56-1.66-0.84-3.19-0.84h-2zm-253.25 0c-0.78 0.05-1.4 0.19-1.87 0.38-0.64 0.25-1.11 0.65-1.41 1.22v-1.5h-1.28v8.12h1.28v-4.84c0-0.78 0.27-1.36 0.84-1.69s1.55-0.5 2.91-0.5c0.76 0 1.39 0.04 1.91 0.12 0.52 0.09 0.9 0.22 1.12 0.38 0.2 0.14 0.33 0.32 0.41 0.53 0.08 0.22 0.12 0.58 0.12 1.06v4.94h1.28v-5.28c0-1.08-0.34-1.84-1-2.28-0.65-0.44-1.82-0.66-3.5-0.66-0.29 0-0.55-0.01-0.81 0zm61.44 0c-1.02 0-1.77 0.1-2.25 0.31s-0.86 0.56-1.13 1.07v-1.19h-1.25v8.03h1.32v-5.03c0-0.7 0.24-1.22 0.72-1.53 0.47-0.31 1.23-0.47 2.28-0.47 1.14 0 1.9 0.13 2.28 0.37 0.38 0.25 0.56 0.72 0.56 1.44v0.75h1.22v-1.06c0-0.98-0.29-1.69-0.84-2.09-0.56-0.42-1.54-0.6-2.91-0.6zm30.66 0c-1.23 0-2.12 0.16-2.66 0.53-0.55 0.37-0.81 0.96-0.81 1.78v0.25h1.34v-0.25c0-0.43 0.13-0.72 0.41-0.87 0.27-0.15 0.91-0.22 1.9-0.22h1.94c1.01 0 1.7 0.11 2.06 0.38 0.37 0.26 0.57 0.74 0.57 1.43v1.13c-0.28-0.34-0.65-0.6-1.1-0.75-0.45-0.16-1.01-0.22-1.69-0.22h-2.28c-1.37 0-2.31 0.19-2.87 0.56-0.56 0.38-0.85 1.02-0.85 1.94 0 0.98 0.29 1.67 0.85 2.06s1.52 0.56 2.9 0.56h2.16c0.85 0 1.52-0.07 1.94-0.25s0.72-0.47 0.94-0.9v1.06h1.21v-5.25c0-1.03-0.28-1.77-0.87-2.25s-1.5-0.72-2.75-0.72h-2.34zm65.59 0c-1.23 0-2.11 0.16-2.66 0.53-0.54 0.37-0.81 0.96-0.81 1.78v0.25h1.34v-0.25c0-0.43 0.13-0.72 0.41-0.87s0.91-0.22 1.91-0.22h1.93c1.02 0 1.7 0.11 2.07 0.38 0.37 0.26 0.56 0.74 0.56 1.43v1.13c-0.28-0.34-0.65-0.6-1.09-0.75-0.45-0.16-1.01-0.22-1.69-0.22h-2.28c-1.38 0-2.35 0.19-2.91 0.56-0.55 0.38-0.81 1.02-0.81 1.94 0 0.98 0.28 1.67 0.84 2.06s1.52 0.56 2.91 0.56h2.15c0.86 0 1.52-0.07 1.94-0.25s0.73-0.47 0.94-0.9v1.06h1.22v-5.25c0-1.03-0.29-1.77-0.88-2.25-0.58-0.48-1.49-0.72-2.75-0.72h-2.34zm13.03 0c-1.02 0-1.77 0.1-2.25 0.31s-0.86 0.56-1.12 1.07v-1.19h-1.25v8.03h1.31v-5.03c0-0.7 0.24-1.22 0.72-1.53 0.47-0.31 1.23-0.47 2.28-0.47 1.14 0 1.9 0.13 2.28 0.37 0.38 0.25 0.56 0.72 0.56 1.44v0.75h1.19v-1.06c0-0.98-0.26-1.69-0.81-2.09-0.56-0.42-1.54-0.6-2.91-0.6zm33.09 0c-1.13 0-1.96 0.08-2.5 0.25-0.53 0.17-0.89 0.47-1.12 0.88v-1.03h-1.25v8.12h1.25v-4.94c0-0.75 0.27-1.3 0.81-1.62 0.55-0.33 1.46-0.47 2.72-0.47 1.19 0 1.96 0.1 2.34 0.34 0.39 0.25 0.6 0.79 0.6 1.63v5.06h1.22v-5.03c0.07-0.71 0.35-1.22 0.87-1.53 0.53-0.32 1.38-0.47 2.5-0.47 0.62 0 1.16 0.04 1.63 0.12 0.46 0.09 0.8 0.22 1.03 0.38 0.19 0.13 0.33 0.31 0.4 0.53 0.09 0.22 0.13 0.57 0.13 1.06v4.94h1.16v-5.28c0-1.07-0.31-1.84-0.97-2.28-0.67-0.45-1.82-0.66-3.44-0.66-0.94 0-1.72 0.1-2.31 0.35-0.59 0.23-1.04 0.61-1.38 1.12-0.17-0.54-0.53-0.93-1.06-1.16-0.53-0.22-1.42-0.31-2.63-0.31zm18.38 0c-0.9 0-1.56 0.13-2 0.35-0.44 0.21-0.77 0.57-1 1.09v-1.31h-1.09v10.84h1.25v-3.75c0.27 0.4 0.59 0.67 1 0.84 0.4 0.18 0.92 0.29 1.53 0.29h2.5c1.38 0 2.36-0.28 2.97-0.82 0.6-0.54 0.9-1.41 0.9-2.65v-1.28c0-1.3-0.28-2.21-0.87-2.75-0.6-0.55-1.6-0.85-3-0.85h-2.19zm43.94 0c-1.03 0-1.8 0.1-2.28 0.31-0.49 0.21-0.84 0.56-1.1 1.07v-1.19h-1.25v8.03h1.31v-5.03c0-0.7 0.22-1.22 0.69-1.53 0.48-0.31 1.27-0.47 2.31-0.47 1.15 0 1.88 0.13 2.25 0.37 0.38 0.25 0.6 0.72 0.6 1.44v0.75h1.19v-1.06c0-0.98-0.29-1.69-0.85-2.09-0.55-0.42-1.5-0.6-2.87-0.6zm-274.6 0.1v8.12h1.32v-8.12h-1.32zm16.22 0v5.28c0 1.06 0.35 1.83 1.06 2.28 0.72 0.45 1.94 0.65 3.66 0.65 1.14 0 1.98-0.09 2.56-0.34s1.02-0.68 1.35-1.28v1.53h1.25v-8.12h-1.32v5.06c0 0.68-0.29 1.18-0.87 1.5-0.58 0.31-1.49 0.47-2.75 0.47-0.82 0-1.51-0.05-2.03-0.13s-0.86-0.2-1.1-0.37c-0.19-0.15-0.35-0.34-0.43-0.57-0.08-0.22-0.1-0.56-0.1-1.06v-4.9h-1.28zm11.69 0l3.78 3.78-4.31 4.34h1.84l3.41-3.59 3.44 3.59h1.96l-4.46-4.44 3.75-3.68h-1.79l-2.9 2.93-2.97-2.93h-1.75zm33.5 0v8.12h1.28v-8.12h-1.28zm23.16 0v5.28c0 1.06 0.35 1.83 1.06 2.28s1.93 0.65 3.65 0.65c1.14 0 2.02-0.09 2.6-0.34s1.02-0.68 1.34-1.28v1.53h1.25v-8.12h-1.31v5.06c0 0.68-0.29 1.18-0.88 1.5-0.57 0.31-1.48 0.47-2.75 0.47-0.82 0-1.51-0.05-2.03-0.13-0.51-0.08-0.89-0.2-1.12-0.37-0.2-0.15-0.33-0.34-0.41-0.57-0.08-0.22-0.12-0.56-0.12-1.06v-4.9h-1.28zm52.43 0v5.28c0 1.06 0.36 1.83 1.07 2.28s1.93 0.65 3.65 0.65c1.14 0 1.98-0.09 2.56-0.34 0.59-0.25 1.06-0.68 1.38-1.28v1.53h1.22v-8.12h-1.31v5.06c0 0.68-0.3 1.18-0.88 1.5-0.58 0.31-1.48 0.47-2.75 0.47-0.82 0-1.51-0.05-2.03-0.13s-0.86-0.2-1.09-0.37c-0.2-0.15-0.36-0.34-0.44-0.57-0.08-0.22-0.1-0.56-0.1-1.06v-4.9h-1.28zm12.47 0v8.12h1.31v-8.12h-1.31zm93.78 0v8.12h1.28v-8.12h-1.28zm10.72 0v8.12h1.31v-8.12h-1.31zm7.72 1.09h2c1.1 0 1.85 0.13 2.22 0.41 0.37 0.27 0.56 0.77 0.56 1.5v0.18h-7.56c0-0.76 0.22-1.31 0.62-1.62 0.42-0.32 1.14-0.47 2.16-0.47zm-31 0.03h1.81c1.18 0 1.96 0.16 2.35 0.5 0.38 0.34 0.59 1 0.59 2v0.97c0 0.97-0.2 1.63-0.59 1.97-0.39 0.33-1.17 0.5-2.35 0.5h-1.81c-1.17 0-1.92-0.17-2.31-0.5-0.39-0.34-0.6-1-0.6-1.97v-0.97c0-1 0.19-1.66 0.57-2s1.16-0.5 2.34-0.5zm-130.06 3.06h1.94c1.03 0 1.75 0.09 2.12 0.25s0.56 0.42 0.56 0.82v0.71c0 0.4-0.19 0.69-0.56 0.85-0.36 0.15-1.07 0.22-2.12 0.22h-1.94c-1.17 0-1.91-0.09-2.22-0.28-0.31-0.2-0.47-0.61-0.47-1.22 0-0.53 0.17-0.89 0.5-1.07s1.06-0.28 2.19-0.28zm65.59 0h1.94c1.04 0 1.75 0.09 2.12 0.25s0.54 0.42 0.54 0.82v0.71c0 0.4-0.17 0.69-0.54 0.85-0.36 0.15-1.07 0.22-2.12 0.22h-1.94c-1.17 0-1.91-0.09-2.22-0.28-0.31-0.2-0.47-0.61-0.47-1.22 0-0.53 0.18-0.89 0.5-1.07 0.33-0.18 1.06-0.28 2.19-0.28z" transform="translate(-189.63 855.66)"/>
</g>
</svg>
