<?xml version="1.0" encoding="UTF-8" standalone="no"?>
<svg xmlns:rdf="http://www.w3.org/1999/02/22-rdf-syntax-ns#" xmlns="http://www.w3.org/2000/svg" viewBox="0 0 41.948402 41.948406" width="41.948" version="1.1" xmlns:cc="http://creativecommons.org/ns#" height="41.948" xmlns:dc="http://purl.org/dc/elements/1.1/">
<metadata>
<rdf:RDF>
<cc:Work rdf:about="">
<dc:format>image/svg+xml</dc:format>
<dc:type rdf:resource="http://purl.org/dc/dcmitype/StillImage"/>
<dc:title/>
</cc:Work>
</rdf:RDF>
</metadata>
<g transform="translate(-79.026 -915.39)">
<text style="word-spacing:0px;letter-spacing:0px" xml:space="preserve" font-size="15px" line-height="125%" y="867.10254" x="56.058395" font-family="Sans" fill="#000000"><tspan y="867.10254" x="56.058395"/></text>
<text style="word-spacing:0px;letter-spacing:0px" fill-opacity="0" xml:space="preserve" font-size="15px" line-height="125%" y="949.85541" x="86.490097" font-family="Sans"><tspan y="949.85541" x="86.490097"/></text>
<path style="color:#000000" d="m119.8 916.56c-1.567-1.567-4.0899-1.567-5.6568 0l-14.14 14.15-14.142-14.15c-1.5669-1.567-4.0899-1.567-5.6569 0-1.5669 1.567-1.5669 4.0899 0 5.6568l14.142 14.14-14.142 14.14c-1.5669 1.5669-1.5669 4.0899 0 5.6568 1.5669 1.567 4.0899 1.567 5.6569 0l14.142-14.14 14.142 14.142c1.5669 1.567 4.0899 1.567 5.6568 0 1.567-1.567 1.567-4.0899 0-5.6568l-14.142-14.142 14.142-14.142c1.567-1.5669 1.567-4.0899 0-5.6568z" fill="#191919"/>
</g>
</svg>
